<svg height="16" viewBox="0 0 512 512" width="16" xmlns="http://www.w3.org/2000/svg"><path d="m163.5 17.75c-125.028 2.135-223.03 231.994-9.188 461.625-197.34-240.608 9.41-548.496 174.157-289.03-41.116-124.013-106.049-173.601-164.969-172.595zm201.78 4.656c197.34 240.608-9.41 548.528-174.155 289.063 128.357 387.153 488.775 48.785 174.155-289.064zm-98.31 155.75c-42.422 0-76.814 34.392-76.814 76.813 0 42.42 34.392 76.81 76.813 76.81 42.42 0 76.81-34.39 76.81-76.81 0-42.422-34.39-76.814-76.81-76.814z" fill="#e0e0e0"/></svg>