<svg height="16" viewBox="0 0 512 512" width="16" xmlns="http://www.w3.org/2000/svg"><path d="m253.813 14.47c-132.537 0-240.188 107.65-240.188 240.186 0 132.537 107.65 240.156 240.188 240.156 132.536.001 240.187-107.62 240.187-240.156s-107.65-240.186-240.188-240.186zm0 18.686c122.436 0 221.5 99.064 221.5 221.5 0 17.96-2.133 35.412-6.157 52.125l-44.906-8.686-20.53-71.594-1.376-4.844-4.844-1.5-58.063-17.937-66.906-128.626-4.75-9.156-8.655 5.624-91.094 59.25-2.936 1.907-.97 3.374-47.936 167.377-70.22 29.436c-8.82-23.91-13.656-49.753-13.656-76.75 0-122.436 99.064-221.5 221.5-221.5zm.812 62.125-52.53 104.595 16.218 134.438 90.125-61.938v62.97l-23.563 6.25 20.845 128.434c-16.646 3.988-34.03 6.095-51.908 6.095-88.813 0-165.33-52.117-200.656-127.47l74.406-31.217 4.126-1.72 1.25-4.312 48.187-168.28z" fill="#fc7f7f"/></svg>